<?xml version="1.0" encoding="UTF-8" standalone="no"?>
<!-- Created with Inkscape (http://www.inkscape.org/) -->

<svg
   version="1.1"
   id="svg1"
   width="2518.2534"
   height="2518.2534"
   viewBox="0 0 2518.2534 2518.2534"
   sodipodi:docname="upload_oiang6mghxvs4zr3siykodlx7g.pdf"
   xmlns:inkscape="http://www.inkscape.org/namespaces/inkscape"
   xmlns:sodipodi="http://sodipodi.sourceforge.net/DTD/sodipodi-0.dtd"
   xmlns="http://www.w3.org/2000/svg"
   xmlns:svg="http://www.w3.org/2000/svg">
  <defs
     id="defs1">
    <clipPath
       clipPathUnits="userSpaceOnUse"
       id="clipPath9">
      <path
         d="M 0,1888.693 H 1888.693 V 0 H 0 Z"
         transform="translate(-905.3344,-614.74789)"
         id="path9" />
    </clipPath>
    <clipPath
       clipPathUnits="userSpaceOnUse"
       id="clipPath11">
      <path
         d="M 0,1888.693 H 1888.693 V 0 H 0 Z"
         transform="translate(-1053.3375,-614.74789)"
         id="path11" />
    </clipPath>
    <clipPath
       clipPathUnits="userSpaceOnUse"
       id="clipPath13">
      <path
         d="M 0,1888.693 H 1888.693 V 0 H 0 Z"
         transform="translate(-1136.6814,-596.89669)"
         id="path13" />
    </clipPath>
    <clipPath
       clipPathUnits="userSpaceOnUse"
       id="clipPath15">
      <path
         d="M 0,1888.693 H 1888.693 V 0 H 0 Z"
         transform="translate(-1241.7048,-653.33254)"
         id="path15" />
    </clipPath>
    <clipPath
       clipPathUnits="userSpaceOnUse"
       id="clipPath17">
      <path
         d="M 0,1888.693 H 1888.693 V 0 H 0 Z"
         transform="translate(-1511.4076,-677.70139)"
         id="path17" />
    </clipPath>
    <clipPath
       clipPathUnits="userSpaceOnUse"
       id="clipPath19">
      <path
         d="M 0,1888.693 H 1888.693 V 0 H 0 Z"
         transform="translate(-1580.913,-651.66469)"
         id="path19" />
    </clipPath>
    <clipPath
       clipPathUnits="userSpaceOnUse"
       id="clipPath21">
      <path
         d="M 0,1888.693 H 1888.693 V 0 H 0 Z"
         transform="translate(-1608.2832,-593.48539)"
         id="path21" />
    </clipPath>
    <clipPath
       clipPathUnits="userSpaceOnUse"
       id="clipPath23">
      <path
         d="M 0,1888.693 H 1888.693 V 0 H 0 Z"
         transform="translate(-1598.0068,-677.70139)"
         id="path23" />
    </clipPath>
    <clipPath
       clipPathUnits="userSpaceOnUse"
       id="clipPath25">
      <path
         d="M 0,1888.693 H 1888.693 V 0 H 0 Z"
         transform="translate(-407.58281,-596.59279)"
         id="path25" />
    </clipPath>
    <clipPath
       clipPathUnits="userSpaceOnUse"
       id="clipPath27">
      <path
         d="M 0,1888.693 H 1888.693 V 0 H 0 Z"
         transform="translate(-409.54361,-647.94499)"
         id="path27" />
    </clipPath>
    <clipPath
       clipPathUnits="userSpaceOnUse"
       id="clipPath29">
      <path
         d="M 0,1888.693 H 1888.693 V 0 H 0 Z"
         transform="translate(-384.37201,-655.81872)"
         id="path29" />
    </clipPath>
    <clipPath
       clipPathUnits="userSpaceOnUse"
       id="clipPath31">
      <path
         d="M 0,1888.693 H 1888.693 V 0 H 0 Z"
         transform="translate(-350.57391,-659.04724)"
         id="path31" />
    </clipPath>
    <clipPath
       clipPathUnits="userSpaceOnUse"
       id="clipPath32">
      <path
         d="m 381.542,647.622 h 0.11 v -0.092 h -0.11 z"
         transform="translate(-381.65231,-647.52979)"
         id="path32" />
    </clipPath>
    <clipPath
       clipPathUnits="userSpaceOnUse"
       id="clipPath34">
      <path
         d="M 0,1888.693 H 1888.693 V 0 H 0 Z"
         transform="matrix(1.3333333,0,0,-1.3333333,0,2518.2533)"
         id="path34" />
    </clipPath>
    <clipPath
       clipPathUnits="userSpaceOnUse"
       id="clipPath36">
      <path
         d="M 0,1888.693 H 1888.693 V 0 H 0 Z"
         transform="translate(-370.30471,-636.01924)"
         id="path36" />
    </clipPath>
  </defs>
  <sodipodi:namedview
     id="namedview1"
     pagecolor="#ffffff"
     bordercolor="#000000"
     borderopacity="0.25"
     inkscape:showpageshadow="2"
     inkscape:pageopacity="0.0"
     inkscape:pagecheckerboard="0"
     inkscape:deskcolor="#d1d1d1">
    <inkscape:page
       x="0"
       y="0"
       inkscape:label="1"
       id="page1"
       width="2518.2534"
       height="2518.2534"
       margin="702.09735 297.22665 702.09332 297.228"
       bleed="0" />
  </sodipodi:namedview>
  <g
     id="layer-MC0"
     inkscape:groupmode="layer"
     inkscape:label="Livello 1">
    <path
       id="path1"
       d="m 0,0 h -41.348 l -144.72,-270.592 93.04,-173.963 20.674,38.655 -72.367,135.308 124.047,231.937 124.047,-231.937 -144.721,-270.593 H 0 l 144.721,270.593 z M 62.034,-270.592 -82.687,-541.185 h -41.348 L -268.755,-270.592 -124.035,0 h 41.348 l -144.72,-270.592 124.046,-231.937 124.047,231.937 -72.366,135.307 20.673,38.656 z"
       style="fill:#050606;fill-opacity:1;fill-rule:nonzero;stroke:none"
       transform="matrix(1.3333333,0,0,-1.3333333,1341.8184,702.09307)" />
    <path
       id="path2"
       d="M 0,0 H 12.256 L 75.611,-144.403 H 66.782 Z"
       style="fill:#040606;fill-opacity:1;fill-rule:nonzero;stroke:none"
       transform="matrix(1.3333333,0,0,-1.3333333,948.62893,1614.6515)" />
    <path
       id="path3"
       d="m 0,0 v 0.001 h -55.065 l 27.289,58.177 h 0.488 l -0.001,0.002 h -0.568 L -55.146,0 Z"
       style="fill:#040606;fill-opacity:1;fill-rule:nonzero;stroke:none"
       transform="matrix(1.3333333,0,0,-1.3333333,2144.2697,1726.9408)" />
    <path
       id="path4"
       d="M 0,0 H -85.466 V 58.404 H -113.55 V 30.609 l 1.961,-1.961 V 0.099 l -1.961,-1.961 v -20.842 l 14.274,-14.275 -14.274,-14.275 v -32.81 h 28.084 v 59.653 H 0 V -84.064 H 28.123 V 58.404 L 0,58.404 Z"
       style="fill:#040606;fill-opacity:1;fill-rule:nonzero;stroke:none"
       transform="matrix(1.3333333,0,0,-1.3333333,694.844,1692.5237)" />
    <path
       id="path5"
       d="m 584.047,535.231 h 28.084 V 677.7 h -28.084 z"
       style="fill:#040606;fill-opacity:1;fill-rule:nonzero;stroke:none"
       transform="matrix(1.3333333,0,0,-1.3333333,0,2518.2533)" />
    <path
       id="path6"
       d="M 0,0 27.289,-58.18 H -27.857 L -0.568,0 Z m -16.867,26.037 -67.35,-142.469 h 29.298 l 16.224,34.83 h 76.786 l 17.055,-36.764 H 65.987 L -0.795,26.037 Z"
       style="fill:#040606;fill-opacity:1;fill-rule:nonzero;stroke:none"
       transform="matrix(1.3333333,0,0,-1.3333333,949.6888,1649.3671)" />
    <path
       id="path7"
       d="M 0,0 66.782,-144.403 H 76.825 L 9.06,0 Z"
       style="fill:#040606;fill-opacity:1;fill-rule:nonzero;stroke:none"
       transform="matrix(1.3333333,0,0,-1.3333333,960.40107,1614.6515)" />
    <path
       id="path8"
       d="m 0,0 c -4.926,-4.017 -11.902,-5.987 -20.845,-5.987 h -43.776 v 44.948 h 43.776 c 8.943,0 15.919,-2.044 20.845,-6.1 C 5.004,28.766 7.466,23.308 7.466,16.335 7.466,9.436 5.004,3.978 0,0 M 9.173,57.194 C 0.72,61.058 -9.436,62.953 -21.263,62.953 H -92.705 V -79.515 h 28.084 v 49.458 h 43.358 c 11.827,0 21.983,1.934 30.436,5.837 8.45,3.868 14.933,9.287 19.443,16.299 4.472,6.973 6.707,15.047 6.707,24.256 0,9.286 -2.235,17.434 -6.707,24.446 -4.51,7.087 -10.993,12.545 -19.443,16.413"
       style="fill:#040606;fill-opacity:1;fill-rule:nonzero;stroke:none"
       transform="matrix(1.3333333,0,0,-1.3333333,1207.1125,1698.5895)"
       clip-path="url(#clipPath9)" />
    <path
       id="path10"
       d="m 0,0 c -4.965,-4.017 -11.938,-5.987 -20.884,-5.987 h -43.737 v 44.948 h 43.737 c 8.946,0 15.919,-2.044 20.884,-6.1 C 4.926,28.766 7.392,23.308 7.392,16.335 7.392,9.436 4.926,3.978 0,0 m 9.173,57.194 c -8.527,3.864 -18.648,5.759 -30.437,5.759 h -71.48 V -79.515 h 28.123 v 49.458 h 43.357 c 11.789,0 21.91,1.934 30.437,5.837 8.45,3.868 14.968,9.287 19.404,16.299 4.511,6.973 6.746,15.047 6.746,24.256 0,9.286 -2.235,17.434 -6.746,24.446 -4.436,7.087 -10.954,12.545 -19.404,16.413"
       style="fill:#040606;fill-opacity:1;fill-rule:nonzero;stroke:none"
       transform="matrix(1.3333333,0,0,-1.3333333,1404.45,1698.5895)"
       clip-path="url(#clipPath11)" />
    <path
       id="path12"
       d="M 0,0 H 74.703 V 23.649 H 0 V 56.814 H 95.054 V 80.803 H -28.084 V -61.665 H 97.102 v 24.067 l -97.102,0 z"
       style="fill:#040606;fill-opacity:1;fill-rule:nonzero;stroke:none"
       transform="matrix(1.3333333,0,0,-1.3333333,1515.5752,1722.3911)"
       clip-path="url(#clipPath13)" />
    <path
       id="path14"
       d="M 0,0 H 52.151 V -118.1 H 80.199 V 0 h 52.113 V 24.369 H 0 Z"
       style="fill:#040606;fill-opacity:1;fill-rule:nonzero;stroke:none"
       transform="matrix(1.3333333,0,0,-1.3333333,1655.6064,1647.1433)"
       clip-path="url(#clipPath15)" />
    <path
       id="path16"
       d="m 0,0 h -132.312 v -24.369 h 52.151 v -118.1 h 28.084 v 118.1 H 0 Z"
       style="fill:#040606;fill-opacity:1;fill-rule:nonzero;stroke:none"
       transform="matrix(1.3333333,0,0,-1.3333333,2015.2101,1614.6515)"
       clip-path="url(#clipPath17)" />
    <path
       id="path18"
       d="m 0,0 0.001,-0.002 h 0.08 L 27.37,-58.179 H 27.289 V -58.18 H -27.857 L -0.568,0 Z m -16.867,26.037 -67.35,-142.469 h 29.298 l 16.224,34.83 h 76.786 l 17.055,-36.764 H 65.987 L -0.795,26.037 Z"
       style="fill:#040606;fill-opacity:1;fill-rule:nonzero;stroke:none"
       transform="matrix(1.3333333,0,0,-1.3333333,2107.884,1649.3671)"
       clip-path="url(#clipPath19)" />
    <path
       id="path20"
       d="m 0,0 -27.289,58.177 h -0.08 L -0.081,0 Z"
       style="fill:#040606;fill-opacity:1;fill-rule:nonzero;stroke:none"
       transform="matrix(1.3333333,0,0,-1.3333333,2144.3776,1726.9395)"
       clip-path="url(#clipPath21)" />
    <path
       id="path22"
       d="M 0,0 H -9.06 L 57.723,-144.403 H 67.765 Z"
       style="fill:#040606;fill-opacity:1;fill-rule:nonzero;stroke:none"
       transform="matrix(1.3333333,0,0,-1.3333333,2130.6757,1614.6515)"
       clip-path="url(#clipPath23)" />
    <path
       id="path24"
       d="m 0,0 v -28.549 l 14.275,14.274 z"
       style="fill:#040606;fill-opacity:1;fill-rule:nonzero;stroke:none"
       transform="matrix(1.3333333,0,0,-1.3333333,543.44373,1722.7963)"
       clip-path="url(#clipPath25)" />
    <path
       id="path26"
       d="M 0,0 -1.961,1.961 V -30.51 L 0,-28.549 Z"
       style="fill:#040606;fill-opacity:1;fill-rule:nonzero;stroke:none"
       transform="matrix(1.3333333,0,0,-1.3333333,546.05813,1654.3267)"
       clip-path="url(#clipPath27)" />
    <path
       id="path28"
       d="M 0,0 C -0.07,0.062 -0.146,0.121 -0.216,0.182 -0.146,0.121 -0.07,0.062 0,0 0.866,-0.765 1.698,-1.546 2.514,-2.333 l 4.417,4.528 c -7.621,7.374 -17.436,13.981 -29.214,19.641 -12.576,5.961 -27.544,8.984 -44.486,8.984 -18.183,0 -34.643,-3.507 -48.922,-10.423 -14.476,-7.005 -25.828,-16.736 -33.739,-28.923 -7.977,-12.256 -12.021,-25.954 -12.021,-40.714 0,-14.725 4.044,-28.405 12.017,-40.654 7.869,-12.163 19.221,-21.9 33.743,-28.946 14.253,-6.905 30.714,-10.406 48.922,-10.406 16.795,0 31.861,3.114 44.798,9.266 12.112,5.88 22.133,12.673 29.783,20.194 l 0.494,0.486 -3.84,3.841 -2.559,2.559 -4.482,4.481 -0.051,0.052 -0.593,0.593 -0.438,-0.328 c -0.505,-0.378 -1.02,-0.757 -1.56,-1.151 -7.899,-6.146 -15.881,-11.063 -23.735,-14.615 -0.776,-0.364 -1.538,-0.712 -2.268,-1.02 -3.294,-1.399 -6.966,-2.621 -10.914,-3.628 -3.627,-0.926 -7.35,-1.638 -11.069,-2.115 -4.716,-0.608 -9.683,-0.918 -14.761,-0.918 -14.314,0 -27.423,2.711 -38.957,8.057 -2.711,1.278 -5.382,2.729 -7.943,4.318 l -0.353,0.205 c -0.291,0.184 -0.568,0.375 -0.846,0.565 l -0.572,0.391 c -7.202,4.765 -13.134,10.536 -17.638,17.164 -2.235,3.232 -4.148,6.752 -5.685,10.464 -2.842,6.862 -4.284,14.262 -4.284,21.995 0,11.959 3.356,22.899 9.976,32.514 5.784,8.425 13.695,15.369 23.515,20.639 1.246,0.668 2.512,1.321 3.816,1.935 11.519,5.38 24.633,8.108 38.976,8.108 3.424,0 6.814,-0.143 10.078,-0.424 9.658,-0.831 18.471,-2.899 26.194,-6.148 9.583,-4.048 19.031,-9.727 28.066,-16.858 l 6.135,6.291 C 1.698,-1.546 0.866,-0.765 0,0"
       style="fill:#040606;fill-opacity:1;fill-rule:nonzero;stroke:none"
       transform="matrix(1.3333333,0,0,-1.3333333,512.496,1643.8284)"
       clip-path="url(#clipPath29)" />
    <path
       id="path30"
       d="m 0,0 c -9.713,4.079 -21.208,6.148 -34.16,6.148 -13.545,0 -25.882,-2.555 -36.669,-7.594 -10.71,-5.042 -19.178,-12.019 -25.159,-20.73 -6.07,-8.817 -9.019,-18.446 -9.019,-29.446 0,-10.86 3.032,-20.748 9.012,-29.388 5.933,-8.73 14.399,-15.718 25.174,-20.792 10.807,-5.001 23.148,-7.542 36.661,-7.542 13.272,0 24.919,2.097 34.617,6.234 8.473,3.561 17.088,8.817 25.672,15.609 0.178,0.14 0.356,0.276 0.534,0.415 l -3.681,3.68 -2.397,2.252 c -0.147,-0.124 -0.295,-0.239 -0.442,-0.362 -7.857,-6.567 -15.857,-11.679 -24.005,-15.103 -8.261,-3.524 -17.963,-5.267 -29.106,-5.267 -11.409,0 -21.682,2.122 -30.852,6.367 -9.095,4.283 -16.299,10.156 -21.452,17.739 -5.191,7.503 -7.771,15.955 -7.771,25.317 0,9.4 2.58,17.814 7.771,25.355 5.153,7.505 12.357,13.418 21.452,17.701 9.17,4.283 19.443,6.405 30.852,6.405 10.877,0 20.426,-1.707 28.727,-5.192 8.107,-3.422 16.029,-8.274 23.768,-14.574 10e-4,0 10e-4,-10e-4 0.002,-10e-4 l 6.813,6.985 C 17.787,-9.098 8.944,-3.774 0,0"
       style="fill:#040606;fill-opacity:1;fill-rule:nonzero;stroke:none"
       transform="matrix(1.3333333,0,0,-1.3333333,467.43187,1639.5237)"
       clip-path="url(#clipPath31)" />
    <g
       opacity="0.699997"
       id="g33"
       clip-path="url(#clipPath34)">
      <path
         d="M 0,0 -0.11,0.093 Z"
         style="fill:#040606;fill-opacity:1;fill-rule:nonzero;stroke:none"
         transform="matrix(1.3333333,0,0,-1.3333333,508.86973,1654.8803)"
         clip-path="url(#clipPath32)"
         id="path33" />
    </g>
    <path
       id="path35"
       d="M 0,0 6.914,6.914 C 6.883,6.938 6.852,6.961 6.822,6.985 6.784,7.015 6.745,7.042 6.707,7.072 6.675,7.097 6.643,7.12 6.611,7.145 L -0.202,0.16 C -0.165,0.13 -0.128,0.103 -0.091,0.072 -0.061,0.048 -0.03,0.024 0,0"
       style="fill:#040606;fill-opacity:1;fill-rule:nonzero;stroke:none"
       transform="matrix(1.3333333,0,0,-1.3333333,493.7396,1670.2277)"
       clip-path="url(#clipPath36)" />
  </g>
</svg>
